<svg width="54" height="54" viewBox="0 0 54 54" fill="none" xmlns="http://www.w3.org/2000/svg">
<rect width="54" height="54" rx="27" fill="#F8E1CC"/>
<path d="M37.6661 28.5599V28.3332C37.6674 26.9066 37.3825 25.4942 36.8283 24.1796C36.2741 22.865 35.4618 21.675 34.4395 20.6799C33.246 19.5186 31.7923 18.6591 30.1995 18.1732H30.1328C29.016 17.8214 27.8502 17.6504 26.6795 17.6666C23.8906 17.8197 21.2658 19.0329 19.3423 21.058C17.4189 23.0832 16.3422 25.7669 16.3328 28.5599C15.4417 28.8734 14.6903 29.4921 14.2116 30.3065C13.733 31.1209 13.558 32.0784 13.7177 33.0095C13.8774 33.9405 14.3615 34.785 15.0842 35.3933C15.8068 36.0017 16.7215 36.3347 17.6661 36.3332H36.3328C37.2774 36.3347 38.1921 36.0017 38.9148 35.3933C39.6374 34.785 40.1215 33.9405 40.2812 33.0095C40.4409 32.0784 40.2659 31.1209 39.7873 30.3065C39.3086 29.4921 38.5572 28.8734 37.6661 28.5599V28.5599ZM36.3328 33.6666H17.6661C17.3125 33.6666 16.9734 33.5261 16.7233 33.2761C16.4733 33.026 16.3328 32.6869 16.3328 32.3332C16.3328 31.9796 16.4733 31.6405 16.7233 31.3904C16.9734 31.1404 17.3125 30.9999 17.6661 30.9999H20.3328C20.6864 30.9999 21.0256 30.8594 21.2756 30.6094C21.5256 30.3593 21.6661 30.0202 21.6661 29.6666C21.6661 29.313 21.5256 28.9738 21.2756 28.7238C21.0256 28.4737 20.6864 28.3332 20.3328 28.3332H18.9995C19.0603 26.9503 19.4561 25.6029 20.1528 24.4067C20.8496 23.2106 21.8265 22.2016 22.9995 21.4666V25.6666C22.9995 26.0202 23.1399 26.3593 23.39 26.6094C23.64 26.8594 23.9792 26.9999 24.3328 26.9999C24.6864 26.9999 25.0255 26.8594 25.2756 26.6094C25.5256 26.3593 25.6661 26.0202 25.6661 25.6666V20.4532C26.028 20.3928 26.3931 20.3527 26.7595 20.3332H26.9995C27.447 20.3373 27.8933 20.382 28.3328 20.4666V25.6666C28.3328 26.0202 28.4733 26.3593 28.7233 26.6094C28.9734 26.8594 29.3125 26.9999 29.6661 26.9999C30.0197 26.9999 30.3589 26.8594 30.6089 26.6094C30.859 26.3593 30.9995 26.0202 30.9995 25.6666V21.4266C31.565 21.7541 32.0927 22.1431 32.5728 22.5866C33.3415 23.3331 33.9525 24.2265 34.3693 25.2136C34.7862 26.2008 35.0005 27.2617 34.9995 28.3332H33.6661C33.3125 28.3332 32.9734 28.4737 32.7233 28.7238C32.4733 28.9738 32.3328 29.313 32.3328 29.6666C32.3328 30.0202 32.4733 30.3593 32.7233 30.6094C32.9734 30.8594 33.3125 30.9999 33.6661 30.9999H36.3328C36.6864 30.9999 37.0256 31.1404 37.2756 31.3904C37.5256 31.6405 37.6661 31.9796 37.6661 32.3332C37.6661 32.6869 37.5256 33.026 37.2756 33.2761C37.0256 33.5261 36.6864 33.6666 36.3328 33.6666Z" fill="#B65800"/>
</svg>
