<svg width="54" height="54" viewBox="0 0 54 54" fill="none" xmlns="http://www.w3.org/2000/svg">
<rect width="54" height="54" rx="27" fill="#F3CEEB"/>
<path d="M37.6668 21.6667L29.6668 14.6533C28.9334 13.9974 27.984 13.6348 27.0001 13.6348C26.0162 13.6348 25.0668 13.9974 24.3335 14.6533L16.3335 21.6667C15.91 22.0454 15.572 22.5101 15.3421 23.0297C15.1122 23.5493 14.9956 24.1118 15.0001 24.68V36.3333C15.0001 37.3942 15.4216 38.4116 16.1717 39.1618C16.9218 39.9119 17.9393 40.3333 19.0001 40.3333H35.0001C36.061 40.3333 37.0784 39.9119 37.8286 39.1618C38.5787 38.4116 39.0001 37.3942 39.0001 36.3333V24.6667C39.0027 24.1008 38.8853 23.5407 38.6554 23.0236C38.4256 22.5064 38.0886 22.0439 37.6668 21.6667ZM29.6668 37.6667H24.3335V31C24.3335 30.6464 24.4739 30.3072 24.724 30.0572C24.974 29.8071 25.3132 29.6667 25.6668 29.6667H28.3335C28.6871 29.6667 29.0262 29.8071 29.2763 30.0572C29.5263 30.3072 29.6668 30.6464 29.6668 31V37.6667ZM36.3335 36.3333C36.3335 36.687 36.193 37.0261 35.9429 37.2761C35.6929 37.5262 35.3537 37.6667 35.0001 37.6667H32.3335V31C32.3335 29.9391 31.912 28.9217 31.1619 28.1716C30.4117 27.4214 29.3943 27 28.3335 27H25.6668C24.6059 27 23.5885 27.4214 22.8384 28.1716C22.0882 28.9217 21.6668 29.9391 21.6668 31V37.6667H19.0001C18.6465 37.6667 18.3074 37.5262 18.0573 37.2761C17.8073 37.0261 17.6668 36.687 17.6668 36.3333V24.6667C17.667 24.4774 17.7076 24.2903 17.7857 24.1178C17.8639 23.9454 17.9779 23.7916 18.1201 23.6667L26.1201 16.6667C26.3634 16.4529 26.6762 16.335 27.0001 16.335C27.324 16.335 27.6368 16.4529 27.8801 16.6667L35.8801 23.6667C36.0223 23.7916 36.1363 23.9454 36.2145 24.1178C36.2927 24.2903 36.3332 24.4774 36.3335 24.6667V36.3333Z" fill="#B6008E"/>
</svg>
