<svg width="55" height="54" viewBox="0 0 55 54" fill="none" xmlns="http://www.w3.org/2000/svg">
<rect x="0.5" width="54" height="54" rx="27" fill="#E9F5F9"/>
<mask id="mask0_4235_39420" style="mask-type:alpha" maskUnits="userSpaceOnUse" x="10" y="10" width="35" height="34">
<rect x="10.5" y="10" width="34" height="34" fill="#D9D9D9"/>
</mask>
<g mask="url(#mask0_4235_39420)">
<path d="M33.1663 38.3333V26.0437C33.1663 25.6659 33.0837 25.3118 32.9184 24.9812C32.7531 24.6507 32.517 24.3909 32.2101 24.202L25.1976 19.1729V17.0833C25.1976 16.7055 25.3393 16.375 25.6226 16.0916C25.9059 15.8083 26.2365 15.6666 26.6143 15.6666H40.2497C40.6275 15.6666 40.958 15.8083 41.2413 16.0916C41.5247 16.375 41.6663 16.7055 41.6663 17.0833V36.9166C41.6663 37.2944 41.5247 37.625 41.2413 37.9083C40.958 38.1916 40.6275 38.3333 40.2497 38.3333H33.1663ZM34.9018 33.7645H37.0976V31.5687H34.9018V33.7645ZM34.9018 28.0979H37.0976V25.902H34.9018V28.0979ZM34.9018 22.4312H37.0976V20.2354H34.9018V22.4312ZM13.333 37.2V27.4604C13.333 27.1062 13.4156 26.7577 13.5809 26.4149C13.7462 26.073 13.9823 25.8076 14.2893 25.6187L20.4872 21.1916C20.9122 20.9083 21.3608 20.7666 21.833 20.7666C22.3052 20.7666 22.7538 20.9083 23.1788 21.1916L29.3768 25.6187C29.6837 25.8076 29.9198 26.073 30.0851 26.4149C30.2504 26.7577 30.333 27.1062 30.333 27.4604V37.2C30.333 37.5305 30.2268 37.802 30.0143 38.0145C29.8018 38.227 29.5302 38.3333 29.1997 38.3333H24.4538V31.1437H19.2122V38.3333H14.4663C14.1358 38.3333 13.8643 38.227 13.6518 38.0145C13.4393 37.802 13.333 37.5305 13.333 37.2Z" fill="#00C2FF"/>
</g>
</svg>
