<svg width="54" height="54" viewBox="0 0 54 54" fill="none" xmlns="http://www.w3.org/2000/svg">
<rect width="54" height="54" rx="27" fill="#F3CEEB"/>
<path d="M37.174 15.8668C37.0191 15.7414 36.8381 15.6525 36.6443 15.6063C36.4504 15.5602 36.2487 15.558 36.054 15.6001C34.6292 15.8987 33.1584 15.9025 31.7322 15.6113C30.3059 15.32 28.9543 14.74 27.7607 13.9068C27.5375 13.7519 27.2723 13.6689 27.0007 13.6689C26.729 13.6689 26.4639 13.7519 26.2407 13.9068C25.047 14.74 23.6954 15.32 22.2691 15.6113C20.8429 15.9025 19.3721 15.8987 17.9473 15.6001C17.7526 15.558 17.5509 15.5602 17.3571 15.6063C17.1632 15.6525 16.9822 15.7414 16.8273 15.8668C16.6726 15.9922 16.548 16.1508 16.4626 16.3308C16.3773 16.5107 16.3333 16.7076 16.334 16.9068V26.8401C16.3328 28.7517 16.7884 30.636 17.6627 32.336C18.5371 34.036 19.8049 35.5025 21.3607 36.6134L26.2273 40.0801C26.4531 40.2409 26.7235 40.3273 27.0007 40.3273C27.2779 40.3273 27.5482 40.2409 27.774 40.0801L32.6407 36.6134C34.1964 35.5025 35.4643 34.036 36.3386 32.336C37.213 30.636 37.6685 28.7517 37.6673 26.8401V16.9068C37.668 16.7076 37.624 16.5107 37.5387 16.3308C37.4533 16.1508 37.3287 15.9922 37.174 15.8668ZM35.0007 26.8401C35.0017 28.3264 34.6477 29.7915 33.9682 31.1134C33.2887 32.4354 32.3033 33.5759 31.094 34.4401L27.0007 37.3601L22.9073 34.4401C21.698 33.5759 20.7126 32.4354 20.0331 31.1134C19.3536 29.7915 18.9996 28.3264 19.0007 26.8401V18.4401C21.7959 18.6793 24.5954 18.0308 27.0007 16.5868C29.4059 18.0308 32.2054 18.6793 35.0007 18.4401V26.8401ZM29.054 23.7868L25.4673 27.3868L24.2807 26.1868C24.0296 25.9357 23.6891 25.7946 23.334 25.7946C22.9789 25.7946 22.6384 25.9357 22.3873 26.1868C22.1363 26.4378 21.9952 26.7784 21.9952 27.1334C21.9952 27.4885 22.1363 27.829 22.3873 28.0801L24.5207 30.2134C24.6446 30.3384 24.7921 30.4376 24.9546 30.5053C25.117 30.573 25.2913 30.6078 25.4673 30.6078C25.6433 30.6078 25.8176 30.573 25.9801 30.5053C26.1426 30.4376 26.29 30.3384 26.414 30.2134L31.0007 25.6668C31.2517 25.4157 31.3928 25.0752 31.3928 24.7201C31.3928 24.365 31.2517 24.0245 31.0007 23.7734C30.7496 23.5223 30.4091 23.3813 30.054 23.3813C29.6989 23.3813 29.3584 23.5223 29.1073 23.7734L29.054 23.7868Z" fill="#B6008E"/>
</svg>
