<svg width="54" height="54" viewBox="0 0 54 54" fill="none" xmlns="http://www.w3.org/2000/svg">
<rect width="54" height="54" rx="27" fill="#DEEDFA"/>
<mask id="mask0_4166_33384" style="mask-type:alpha" maskUnits="userSpaceOnUse" x="10" y="10" width="34" height="34">
<rect x="10" y="10" width="34" height="34" fill="#D9D9D9"/>
</mask>
<g mask="url(#mask0_4166_33384)">
<path d="M27.0009 39.6796C24.1676 38.8529 21.8066 37.141 19.9179 34.5439C18.0286 31.9469 17.084 28.9838 17.084 25.6546V18.0752L27.0009 14.3564L36.9179 18.0752V26.5395C36.5161 26.3746 36.0852 26.2508 35.625 26.168C35.1643 26.0853 34.698 26.0439 34.2259 26.0439C31.9593 26.0439 30.0349 26.841 28.4527 28.435C26.8712 30.0285 26.0804 31.9585 26.0804 34.2252C26.0804 35.099 26.228 35.9844 26.5232 36.8814C26.8179 37.7785 27.284 38.605 27.9215 39.3609C27.7566 39.4317 27.5974 39.4907 27.4438 39.5377C27.2902 39.5847 27.1426 39.632 27.0009 39.6796ZM34.2259 39.7502C32.6914 39.7502 31.3869 39.213 30.3125 38.1386C29.2381 37.0642 28.7009 35.7597 28.7009 34.2252C28.7009 32.6907 29.2381 31.3802 30.3125 30.2939C31.3869 29.2076 32.6914 28.6645 34.2259 28.6645C35.7605 28.6645 37.0649 29.2076 38.1393 30.2939C39.2137 31.3802 39.7509 32.6907 39.7509 34.2252C39.7509 35.7597 39.2137 37.0642 38.1393 38.1386C37.0649 39.213 35.7605 39.7502 34.2259 39.7502ZM34.1902 38.4752C34.9462 38.4752 35.6369 38.316 36.2625 37.9975C36.8881 37.6785 37.4015 37.2237 37.8027 36.6332C37.2361 36.3029 36.6518 36.055 36.05 35.8895C35.4477 35.7246 34.8277 35.6421 34.1902 35.6421C33.5527 35.6421 32.9271 35.7246 32.3134 35.8895C31.6997 36.055 31.1212 36.3029 30.5777 36.6332C30.9795 37.2237 31.4872 37.6785 32.1009 37.9975C32.7146 38.316 33.4111 38.4752 34.1902 38.4752ZM34.1902 34.1895C34.8045 34.1895 35.3182 33.977 35.7313 33.552C36.1444 33.127 36.3509 32.6195 36.3509 32.0296C36.3509 31.4392 36.1384 30.9314 35.7134 30.5064C35.2884 30.0814 34.7807 29.8689 34.1902 29.8689C33.6003 29.8689 33.0929 30.0814 32.6679 30.5064C32.2429 30.9314 32.0304 31.4392 32.0304 32.0296C32.0304 32.6195 32.2429 33.127 32.6679 33.552C33.0929 33.977 33.6003 34.1895 34.1902 34.1895Z" fill="#3297EF"/>
</g>
</svg>
