<svg width="54" height="54" viewBox="0 0 54 54" fill="none" xmlns="http://www.w3.org/2000/svg">
<rect width="54" height="54" rx="27" fill="#EFE6FA"/>
<mask id="mask0_4166_33401" style="mask-type:alpha" maskUnits="userSpaceOnUse" x="10" y="10" width="34" height="35">
<rect x="10" y="10.5" width="34" height="34" fill="#D9D9D9"/>
</mask>
<g mask="url(#mask0_4166_33401)">
<path d="M37.2349 23.852C37.0932 23.852 36.9752 23.7986 36.8807 23.6919C36.7863 23.5861 36.7155 23.4624 36.6682 23.3207L36.5974 22.754C36.3377 22.6832 36.0605 22.5708 35.7658 22.4169C35.4702 22.2639 35.2398 22.0693 35.0745 21.8332L34.4724 22.0811C34.3543 22.1283 34.2306 22.1283 34.1012 22.0811C33.9709 22.0339 33.8585 21.9513 33.7641 21.8332L33.6932 21.6561C33.5988 21.5381 33.5695 21.4082 33.6054 21.2665C33.6403 21.1249 33.7168 21.0068 33.8349 20.9124L34.3307 20.5582C34.2835 20.4165 34.2481 20.2749 34.2245 20.1332C34.2009 19.9915 34.1891 19.8499 34.1891 19.7082C34.1891 19.5665 34.2009 19.4249 34.2245 19.2832C34.2481 19.1415 34.2835 18.9999 34.3307 18.8582L33.8349 18.504C33.7168 18.4096 33.6403 18.2854 33.6054 18.1315C33.5695 17.9785 33.5988 17.8429 33.6932 17.7249L33.7641 17.5478C33.8585 17.4297 33.9648 17.3528 34.0828 17.3169C34.2009 17.2819 34.3307 17.2881 34.4724 17.3353L35.0745 17.5832C35.2398 17.3471 35.4702 17.1521 35.7658 16.9981C36.0605 16.8451 36.3377 16.7332 36.5974 16.6624L36.6682 16.0957C36.7155 15.954 36.7863 15.8298 36.8807 15.7231C36.9752 15.6173 37.0932 15.5645 37.2349 15.5645H37.4474C37.5891 15.5645 37.7071 15.6173 37.8016 15.7231C37.896 15.8298 37.9668 15.954 38.0141 16.0957L38.0849 16.6624C38.3446 16.7332 38.6223 16.8451 38.9179 16.9981C39.2126 17.1521 39.4425 17.3471 39.6078 17.5832L40.2099 17.3353C40.328 17.2881 40.4578 17.2881 40.5995 17.3353C40.7411 17.3825 40.8474 17.477 40.9182 17.6186L41.0245 17.7603C41.0953 17.902 41.1133 18.0375 41.0783 18.1669C41.0424 18.2972 40.9655 18.4096 40.8474 18.504L40.3516 18.8582C40.3988 18.9999 40.4342 19.1415 40.4578 19.2832C40.4814 19.4249 40.4932 19.5665 40.4932 19.7082C40.4932 19.8499 40.4814 19.9915 40.4578 20.1332C40.4342 20.2749 40.3988 20.4165 40.3516 20.5582L40.8474 20.9124C40.9655 21.0068 41.0424 21.1305 41.0783 21.2835C41.1133 21.4375 41.0835 21.5735 40.9891 21.6915L40.9182 21.8686C40.8238 21.9867 40.7175 22.0636 40.5995 22.0995C40.4814 22.1345 40.3516 22.1283 40.2099 22.0811L39.6078 21.8332C39.4425 22.0693 39.2126 22.2639 38.9179 22.4169C38.6223 22.5708 38.3446 22.6832 38.0849 22.754L38.0141 23.3207C37.9668 23.4624 37.896 23.5861 37.8016 23.6919C37.7071 23.7986 37.5891 23.852 37.4474 23.852H37.2349ZM37.3411 21.6561C37.8842 21.6561 38.3446 21.4672 38.7224 21.0895C39.1002 20.7117 39.2891 20.2513 39.2891 19.7082C39.2891 19.1651 39.1002 18.7047 38.7224 18.327C38.3446 17.9492 37.8842 17.7603 37.3411 17.7603C36.7981 17.7603 36.3377 17.9492 35.9599 18.327C35.5821 18.7047 35.3932 19.1651 35.3932 19.7082C35.3932 20.2513 35.5821 20.7117 35.9599 21.0895C36.3377 21.4672 36.7981 21.6561 37.3411 21.6561ZM33.587 31.5374C33.5634 31.5374 33.4571 31.4429 33.2682 31.254L33.1974 30.5103C33.0321 30.4631 32.8494 30.3922 32.6491 30.2978C32.448 30.2033 32.2884 30.0853 32.1703 29.9436L31.462 30.227C31.4384 30.2506 31.3085 30.2033 31.0724 30.0853L30.8245 29.6603C30.8245 29.6603 30.8481 29.5186 30.8953 29.2353L31.4974 28.8103C31.4738 28.6922 31.462 28.5916 31.462 28.5085C31.462 28.4264 31.462 28.3263 31.462 28.2082C31.462 28.0901 31.462 27.9957 31.462 27.9249C31.462 27.854 31.4738 27.7478 31.4974 27.6061L30.8953 27.1811C30.8717 27.1339 30.8481 26.9922 30.8245 26.7561L31.0724 26.3311C31.0724 26.3075 31.2023 26.2603 31.462 26.1895L32.1703 26.4728C32.2884 26.3547 32.448 26.2423 32.6491 26.1356C32.8494 26.0298 33.0321 25.9533 33.1974 25.9061L33.2682 25.1624C33.2682 25.1151 33.3745 25.0207 33.587 24.879H34.1182C34.1418 24.879 34.2481 24.9735 34.437 25.1624L34.5078 25.9061C34.6731 25.9533 34.8563 26.0298 35.0575 26.1356C35.2577 26.2423 35.4286 26.3547 35.5703 26.4728L36.2432 26.1895C36.2668 26.1658 36.3967 26.2131 36.6328 26.3311L36.8807 26.7561C36.8807 26.7561 36.8571 26.8978 36.8099 27.1811L36.2078 27.6061C36.2314 27.7478 36.2432 27.854 36.2432 27.9249C36.2432 27.9957 36.2432 28.0901 36.2432 28.2082C36.2432 28.3263 36.2432 28.4264 36.2432 28.5085C36.2432 28.5916 36.2314 28.6922 36.2078 28.8103L36.8099 29.2353C36.8335 29.2825 36.8571 29.4242 36.8807 29.6603L36.6328 30.0853C36.6328 30.1089 36.503 30.1561 36.2432 30.227L35.5703 29.9436C35.4286 30.0853 35.2577 30.2033 35.0575 30.2978C34.8563 30.3922 34.6731 30.4631 34.5078 30.5103L34.437 31.254C34.437 31.3013 34.3307 31.3957 34.1182 31.5374H33.587ZM33.8703 29.4832C34.2245 29.4832 34.5258 29.359 34.7741 29.1106C35.0216 28.8632 35.1453 28.5624 35.1453 28.2082C35.1453 27.854 35.0216 27.5532 34.7741 27.3058C34.5258 27.0574 34.2245 26.9332 33.8703 26.9332C33.4925 26.9332 33.1799 27.0574 32.9325 27.3058C32.6841 27.5532 32.5599 27.854 32.5599 28.2082C32.5599 28.5624 32.6841 28.8632 32.9325 29.1106C33.1799 29.359 33.4925 29.4832 33.8703 29.4832ZM22.6432 28.8457C21.4155 28.8457 20.4002 28.4443 19.5974 27.6415C18.7946 26.8388 18.3932 25.7763 18.3932 24.454H18.0745C17.9092 24.454 17.7793 24.4011 17.6849 24.2954C17.5905 24.1886 17.5432 24.0526 17.5432 23.8874C17.5432 23.7457 17.5905 23.622 17.6849 23.5162C17.7793 23.4095 17.9092 23.3561 18.0745 23.3561H18.3932C18.4168 22.6478 18.5646 21.9985 18.8366 21.4082C19.1077 20.8179 19.5384 20.2513 20.1286 19.7082V21.054C20.1286 21.2193 20.182 21.3548 20.2887 21.4606C20.3945 21.5673 20.5182 21.6207 20.6599 21.6207C20.8252 21.6207 20.9607 21.5673 21.0665 21.4606C21.1732 21.3548 21.2266 21.2193 21.2266 21.054V19.2124C21.4155 19.1415 21.6336 19.0764 21.8811 19.0169C22.1295 18.9583 22.3835 18.929 22.6432 18.929C22.903 18.929 23.1509 18.9583 23.387 19.0169C23.6231 19.0764 23.8474 19.1415 24.0599 19.2124V21.054C24.0599 21.2193 24.1071 21.3548 24.2016 21.4606C24.296 21.5673 24.4259 21.6207 24.5911 21.6207C24.7564 21.6207 24.8863 21.5673 24.9807 21.4606C25.0752 21.3548 25.1224 21.2193 25.1224 21.054V19.7082C25.7363 20.2513 26.1731 20.8179 26.4328 21.4082C26.6925 21.9985 26.846 22.6478 26.8932 23.3561H27.1766C27.3418 23.3561 27.4717 23.4095 27.5661 23.5162C27.6606 23.622 27.7078 23.7457 27.7078 23.8874C27.7078 24.0526 27.6606 24.1886 27.5661 24.2954C27.4717 24.4011 27.3418 24.454 27.1766 24.454H26.8932C26.8932 25.7763 26.4857 26.8388 25.6706 27.6415C24.8565 28.4443 23.8474 28.8457 22.6432 28.8457ZM22.6432 27.429C23.446 27.429 24.1189 27.1632 24.662 26.6315C25.205 26.1007 25.4766 25.4221 25.4766 24.5957H19.8099C19.8099 25.4221 20.0758 26.1007 20.6075 26.6315C21.1383 27.1632 21.8168 27.429 22.6432 27.429ZM12.7266 39.1165V36.779C12.7266 36.1651 12.8862 35.616 13.2054 35.1315C13.5237 34.6479 13.9898 34.2526 14.6036 33.9457C15.7606 33.379 17.0356 32.9186 18.4286 32.5645C19.8217 32.2103 21.2266 32.0332 22.6432 32.0332C24.0363 32.0332 25.435 32.2103 26.8394 32.5645C28.2447 32.9186 29.5141 33.379 30.6474 33.9457C31.2613 34.2526 31.7335 34.6479 32.0641 35.1315C32.3946 35.616 32.5599 36.1651 32.5599 36.779V39.1165H12.7266Z" fill="#9545F8"/>
</g>
</svg>
