<svg width="54" height="54" viewBox="0 0 54 54" fill="none" xmlns="http://www.w3.org/2000/svg">
<rect width="54" height="54" rx="27" fill="#F3CEEB"/>
<mask id="mask0_4235_41388" style="mask-type:alpha" maskUnits="userSpaceOnUse" x="10" y="10" width="34" height="34">
<rect x="10" y="10" width="34" height="34" fill="#D9D9D9"/>
</mask>
<g mask="url(#mask0_4235_41388)">
<path d="M14.25 38.333V23.458L24.1669 15.95L30.5062 20.7312C30.2699 20.802 30.0455 20.8788 29.833 20.9616C29.6205 21.0443 29.408 21.1446 29.1955 21.2625L24.1669 17.4732L15.4544 24.0607V37.1294H22.1482V38.333H14.25ZM24.875 38.333V36.4562C24.875 36.102 24.9693 35.7833 25.158 35.5C25.3473 35.2166 25.5952 34.9806 25.9018 34.7919C26.9411 34.1544 28.0274 33.688 29.1607 33.3928C30.294 33.0976 31.4628 32.95 32.6669 32.95C33.8711 32.95 35.0399 33.0976 36.1732 33.3928C37.3065 33.688 38.3925 34.1544 39.4312 34.7919C39.7384 34.9806 39.9863 35.2166 40.175 35.5C40.3637 35.7833 40.458 36.102 40.458 36.4562V38.333H24.875ZM26.0437 37.1294H39.2893V36.0669C38.2506 35.4764 37.1824 35.0101 36.0848 34.6678C34.9866 34.3255 33.8473 34.1544 32.6669 34.1544C31.486 34.1544 30.3467 34.3255 29.2491 34.6678C28.1509 35.0101 27.0824 35.4764 26.0437 36.0669V37.1294ZM32.6669 29.975C31.6753 29.975 30.8369 29.6267 30.1518 28.9303C29.4673 28.2339 29.125 27.4014 29.125 26.433C29.125 25.4413 29.4673 24.6032 30.1518 23.9187C30.8369 23.2342 31.6753 22.8919 32.6669 22.8919C33.6586 22.8919 34.4967 23.2342 35.1812 23.9187C35.8658 24.6032 36.208 25.4413 36.208 26.433C36.208 27.4014 35.8658 28.2339 35.1812 28.9303C34.4967 29.6267 33.6586 29.975 32.6669 29.975ZM32.6669 28.7705C33.3277 28.7705 33.8825 28.5464 34.3312 28.0982C34.78 27.6494 35.0044 27.0943 35.0044 26.433C35.0044 25.7723 34.78 25.2175 34.3312 24.7687C33.8825 24.3199 33.3277 24.0955 32.6669 24.0955C32.0056 24.0955 31.4506 24.3199 31.0018 24.7687C30.5536 25.2175 30.3294 25.7723 30.3294 26.433C30.3294 27.0943 30.5536 27.6494 31.0018 28.0982C31.4506 28.5464 32.0056 28.7705 32.6669 28.7705Z" fill="#B6008E"/>
</g>
</svg>
