<svg width="91" height="91" viewBox="0 0 91 91" fill="none" xmlns="http://www.w3.org/2000/svg">
<rect x="7" y="7" width="77" height="77" rx="38.5" fill="#D1FADF"/>
<path d="M61.5423 44.0242V45.5001C61.5403 48.9593 60.4202 52.3253 58.349 55.0959C56.2777 57.8665 53.3663 59.8934 50.049 60.8742C46.7317 61.8551 43.1863 61.7373 39.9414 60.5385C36.6965 59.3396 33.926 57.124 32.0432 54.222C30.1604 51.32 29.2661 47.8872 29.4938 44.4354C29.7214 40.9836 31.0587 37.6979 33.3062 35.0683C35.5538 32.4387 38.5912 30.606 41.9654 29.8436C45.3396 29.0813 48.8698 29.4301 52.0296 30.838M61.5423 32.6667L45.5007 48.7244L40.6882 43.9119" stroke="#039855" stroke-width="3.20833" stroke-linecap="round" stroke-linejoin="round"/>
<rect x="7" y="7" width="77" height="77" rx="38.5" stroke="#ECFDF3" stroke-width="12.8333"/>
</svg>
