<svg width="86" height="87" viewBox="0 0 86 87" fill="none" xmlns="http://www.w3.org/2000/svg">
<rect x="6.5" y="7" width="73" height="73" rx="36.5" fill="#FEF0C7"/>
<path d="M43 37.418V43.5013M43 49.5846H43.0153M40.3994 29.6009L27.518 51.1055C27.2524 51.5654 27.1119 52.0869 27.1104 52.618C27.1089 53.1491 27.2465 53.6713 27.5095 54.1327C27.7725 54.5941 28.1517 54.9787 28.6095 55.248C29.0672 55.5173 29.5875 55.6621 30.1186 55.668H55.8815C56.4126 55.6621 56.9329 55.5173 57.3906 55.248C57.8484 54.9787 58.2276 54.5941 58.4906 54.1327C58.7536 53.6713 58.8912 53.1491 58.8897 52.618C58.8882 52.0869 58.7477 51.5654 58.4821 51.1055L45.6007 29.6009C45.3296 29.1539 44.9478 28.7844 44.4923 28.5279C44.0368 28.2715 43.5228 28.1367 43 28.1367C42.4773 28.1367 41.9633 28.2715 41.5078 28.5279C41.0523 28.7844 40.6705 29.1539 40.3994 29.6009Z" stroke="#DC6803" strokeWidth="3.04167" strokeLinecap="round" strokeLinejoin="round"/>
<rect x="6.5" y="7" width="73" height="73" rx="36.5" stroke="#FFFAEB" strokeWidth="12.1667"/>
</svg>
