<svg width="54" height="54" viewBox="0 0 54 54" fill="none" xmlns="http://www.w3.org/2000/svg">
<rect width="54" height="54" rx="27" fill="#E9F5F9"/>
<mask id="mask0_4235_41380" style="mask-type:alpha" maskUnits="userSpaceOnUse" x="10" y="10" width="34" height="34">
<rect x="10" y="10" width="34" height="34" fill="#D9D9D9"/>
</mask>
<g mask="url(#mask0_4235_41380)">
<path d="M13.6484 36.3857V34.225C13.6484 33.5637 13.8196 32.997 14.1618 32.525C14.5041 32.0529 14.9821 31.6753 15.5958 31.3919C16.8946 30.8015 18.1342 30.341 19.3145 30.0107C20.4955 29.6797 21.9121 29.5143 23.5645 29.5143C25.2413 29.5143 26.6639 29.6797 27.8324 30.0107C29.0014 30.341 30.247 30.8015 31.569 31.3919C32.1595 31.6753 32.6258 32.0529 32.9681 32.525C33.3104 32.997 33.4815 33.5637 33.4815 34.225V36.3857H13.6484ZM36.102 36.3857V34.2607C36.102 33.2922 35.9074 32.4479 35.5181 31.7277C35.1282 31.008 34.6029 30.4003 33.9422 29.9044C34.7684 30.0461 35.5651 30.2467 36.3324 30.5062C37.0997 30.7658 37.7904 31.0491 38.4047 31.3562C38.9946 31.6634 39.4666 32.0705 39.8208 32.5777C40.175 33.0854 40.352 33.6464 40.352 34.2607V36.3857H36.102ZM23.5645 26.1143C22.408 26.1143 21.4282 25.7187 20.6252 24.9277C19.8223 24.1372 19.4208 23.1515 19.4208 21.9705C19.4208 20.7902 19.8223 19.8044 20.6252 19.0134C21.4282 18.2223 22.408 17.8268 23.5645 17.8268C24.7455 17.8268 25.7315 18.2223 26.5225 19.0134C27.313 19.8044 27.7083 20.7902 27.7083 21.9705C27.7083 23.1515 27.313 24.1372 26.5225 24.9277C25.7315 25.7187 24.7455 26.1143 23.5645 26.1143ZM29.302 26.1143C29.5621 25.7131 29.7511 25.2527 29.869 24.733C29.9869 24.214 30.0104 23.6711 29.9395 23.1044C30.0812 22.4431 30.0872 21.7702 29.9574 21.0857C29.8276 20.4006 29.6092 19.7158 29.302 19.0312C29.302 18.7949 29.2726 18.5824 29.2136 18.3937C29.1547 18.205 29.0544 18.0398 28.9127 17.8982C29.7865 17.8744 30.5422 18.1399 31.1797 18.6946C31.8172 19.2494 32.1714 19.9402 32.2422 20.7669C32.5964 21.5931 32.6023 22.4018 32.26 23.1928C31.9172 23.9839 31.3208 24.5565 30.4708 24.9107C30.4708 25.2881 30.3645 25.583 30.152 25.7955C29.9395 26.008 29.6562 26.1143 29.302 26.1143Z" fill="#00C2FF"/>
</g>
</svg>
