<svg width="46" height="46" viewBox="0 0 46 46" fill="none" xmlns="http://www.w3.org/2000/svg">
<rect x="0.433594" y="0.882812" width="44.9915" height="44.9915" rx="22.4957" fill="#F3CDCB"/>
<mask id="mask0_5856_86934" style="mask-type:alpha" maskUnits="userSpaceOnUse" x="8" y="8" width="30" height="30">
<rect x="8.76562" y="8.79688" width="28.328" height="28.328" fill="#D9D9D9"/>
</mask>
<g mask="url(#mask0_5856_86934)">
<path d="M24.7001 15.2916C24.051 15.2916 23.4954 15.0603 23.0335 14.5976C22.5708 14.1357 22.3395 13.5802 22.3395 12.931C22.3395 12.2818 22.5708 11.7259 23.0335 11.2632C23.4954 10.8013 24.051 10.5703 24.7001 10.5703C25.3493 10.5703 25.9053 10.8013 26.3679 11.2632C26.8299 11.7259 27.0608 12.2818 27.0608 12.931C27.0608 13.5802 26.8299 14.1357 26.3679 14.5976C25.9053 15.0603 25.3493 15.2916 24.7001 15.2916ZM18.5919 35.9474C18.1591 35.9474 17.8149 35.7952 17.5591 35.4907C17.3034 35.1853 17.2247 34.8261 17.3231 34.413L20.3329 19.3048L18.2083 20.131V22.9638C18.2083 23.2982 18.0954 23.5784 17.8696 23.8042C17.6429 24.0308 17.3624 24.1441 17.028 24.1441C16.6936 24.1441 16.413 24.0308 16.1864 23.8042C15.9606 23.5784 15.8477 23.2982 15.8477 22.9638V20.1605C15.8477 19.6884 15.9755 19.2556 16.2313 18.8621C16.487 18.4687 16.8411 18.1736 17.2936 17.9769L21.8083 16.0589C22.3788 15.8228 22.9592 15.798 23.5493 15.9845C24.1395 16.1718 24.6018 16.531 24.9362 17.0621L26.1165 18.9507C26.5493 19.6392 27.11 20.2294 27.7985 20.7212C28.487 21.213 29.2739 21.5376 30.1592 21.6949C30.4543 21.7343 30.7002 21.8669 30.8969 22.0927C31.0936 22.3193 31.192 22.5703 31.192 22.8458C31.192 23.2195 31.0594 23.5296 30.7942 23.7759C30.5282 24.0214 30.228 24.1146 29.8936 24.0556C28.851 23.8982 27.8823 23.5685 26.9876 23.0665C26.0921 22.5652 25.3297 21.9408 24.7001 21.1933L23.9919 24.7343L25.7329 26.3868C25.969 26.6228 26.1512 26.8833 26.2794 27.1681C26.4069 27.4538 26.4706 27.7638 26.4706 28.0982V34.7671C26.4706 35.1015 26.3577 35.3817 26.1319 35.6075C25.9053 35.8341 25.6247 35.9474 25.2903 35.9474C24.9559 35.9474 24.6757 35.8341 24.4499 35.6075C24.2233 35.3817 24.11 35.1015 24.11 34.7671V28.8654L21.6313 26.5048L19.7132 35.0622C19.6542 35.2983 19.5216 35.5048 19.3155 35.6819C19.1085 35.8589 18.8673 35.9474 18.5919 35.9474Z" fill="#AE1911"/>
</g>
</svg>
