<svg width="54" height="54" viewBox="0 0 54 54" fill="none" xmlns="http://www.w3.org/2000/svg">
<rect width="54" height="54" rx="27" fill="#F3CEEB"/>
<mask id="mask0_5447_63170" style="mask-type:alpha" maskUnits="userSpaceOnUse" x="10" y="10" width="34" height="34">
<rect x="10" y="10" width="34" height="34" fill="#D9D9D9"/>
</mask>
<g mask="url(#mask0_5447_63170)">
<path d="M13.6484 36.386V34.2253C13.6484 33.564 13.8196 32.9974 14.1618 32.5253C14.5041 32.0533 14.9821 31.6756 15.5958 31.3923C16.8946 30.8018 18.1342 30.3414 19.3145 30.011C20.4955 29.6801 21.9121 29.5146 23.5645 29.5146C25.2413 29.5146 26.6639 29.6801 27.8324 30.011C29.0014 30.3414 30.247 30.8018 31.569 31.3923C32.1595 31.6756 32.6258 32.0533 32.9681 32.5253C33.3104 32.9974 33.4815 33.564 33.4815 34.2253V36.386H13.6484ZM36.102 36.386V34.261C36.102 33.2926 35.9074 32.4483 35.5181 31.728C35.1282 31.0084 34.6029 30.4006 33.9422 29.9048C34.7684 30.0465 35.5651 30.2471 36.3324 30.5066C37.0997 30.7661 37.7904 31.0495 38.4047 31.3566C38.9946 31.6637 39.4666 32.0709 39.8208 32.578C40.175 33.0858 40.352 33.6468 40.352 34.261V36.386H36.102ZM23.5645 26.1146C22.408 26.1146 21.4282 25.7191 20.6252 24.928C19.8223 24.1375 19.4208 23.1518 19.4208 21.9709C19.4208 20.7905 19.8223 19.8048 20.6252 19.0137C21.4282 18.2227 22.408 17.8271 23.5645 17.8271C24.7455 17.8271 25.7315 18.2227 26.5225 19.0137C27.313 19.8048 27.7083 20.7905 27.7083 21.9709C27.7083 23.1518 27.313 24.1375 26.5225 24.928C25.7315 25.7191 24.7455 26.1146 23.5645 26.1146ZM29.302 26.1146C29.5621 25.7134 29.7511 25.253 29.869 24.7334C29.9869 24.2143 30.0104 23.6715 29.9395 23.1048C30.0812 22.4435 30.0872 21.7706 29.9574 21.086C29.8276 20.4009 29.6092 19.7161 29.302 19.0316C29.302 18.7953 29.2726 18.5828 29.2136 18.3941C29.1547 18.2054 29.0544 18.0402 28.9127 17.8985C29.7865 17.8747 30.5422 18.1402 31.1797 18.695C31.8172 19.2498 32.1714 19.9405 32.2422 20.7673C32.5964 21.5935 32.6023 22.4021 32.26 23.1932C31.9172 23.9843 31.3208 24.5569 30.4708 24.911C30.4708 25.2884 30.3645 25.5834 30.152 25.7959C29.9395 26.0084 29.6562 26.1146 29.302 26.1146ZM14.852 35.1816H32.277V34.2253C32.277 33.8712 32.1827 33.5465 31.994 33.2512C31.8053 32.956 31.4746 32.6905 31.002 32.4548C29.8217 31.8405 28.6648 31.3977 27.5315 31.1262C26.3982 30.8548 25.0758 30.7191 23.5645 30.7191C22.0538 30.7191 20.7374 30.8548 19.6154 31.1262C18.494 31.3977 17.3312 31.8405 16.127 32.4548C15.6788 32.6905 15.3541 32.956 15.1529 33.2512C14.9523 33.5465 14.852 33.8712 14.852 34.2253V35.1816ZM23.5645 24.911C24.3913 24.911 25.088 24.6277 25.6547 24.061C26.2214 23.4944 26.5047 22.7977 26.5047 21.9709C26.5047 21.1447 26.2214 20.4483 25.6547 19.8816C25.088 19.3149 24.3913 19.0316 23.5645 19.0316C22.7383 19.0316 22.0419 19.3149 21.4752 19.8816C20.9086 20.4483 20.6252 21.1447 20.6252 21.9709C20.6252 22.7977 20.9086 23.4944 21.4752 24.061C22.0419 24.6277 22.7383 24.911 23.5645 24.911Z" fill="#B6008E"/>
</g>
</svg>
