<svg width="36" height="36" viewBox="0 0 36 36" fill="none" xmlns="http://www.w3.org/2000/svg">
<rect width="36" height="36" rx="18" fill="#F7FFF5"/>
<mask id="mask0_5343_65251" style="mask-type:alpha" maskUnits="userSpaceOnUse" x="6" y="6" width="24" height="23">
<rect x="6.66406" y="6.33398" width="22.6667" height="22.6667" fill="#D9D9D9"/>
</mask>
<g mask="url(#mask0_5343_65251)">
<path d="M19.4115 11.5278C18.892 11.5278 18.4475 11.3427 18.0779 10.9724C17.7077 10.6029 17.5226 10.1583 17.5226 9.63889C17.5226 9.11944 17.7077 8.67461 18.0779 8.30439C18.4475 7.9348 18.892 7.75 19.4115 7.75C19.9309 7.75 20.3757 7.9348 20.746 8.30439C21.1156 8.67461 21.3003 9.11944 21.3003 9.63889C21.3003 10.1583 21.1156 10.6029 20.746 10.9724C20.3757 11.3427 19.9309 11.5278 19.4115 11.5278ZM14.524 28.0556C14.1777 28.0556 13.9022 27.9337 13.6976 27.6901C13.4929 27.4458 13.43 27.1583 13.5087 26.8278L15.917 14.7389L14.217 15.4V17.6667C14.217 17.9343 14.1267 18.1584 13.946 18.3391C13.7646 18.5204 13.5402 18.6111 13.2726 18.6111C13.005 18.6111 12.7805 18.5204 12.5992 18.3391C12.4185 18.1584 12.3281 17.9343 12.3281 17.6667V15.4236C12.3281 15.0458 12.4304 14.6995 12.6351 14.3847C12.8397 14.0699 13.123 13.8338 13.4851 13.6764L17.0976 12.1417C17.5541 11.9528 18.0184 11.9329 18.4906 12.0822C18.9628 12.232 19.3328 12.5194 19.6003 12.9444L20.5448 14.4556C20.8911 15.0065 21.3397 15.4787 21.8906 15.8722C22.4415 16.2657 23.0712 16.5255 23.7795 16.6514C24.0156 16.6829 24.2124 16.789 24.3698 16.9697C24.5272 17.151 24.6059 17.3519 24.6059 17.5722C24.6059 17.8713 24.4998 18.1194 24.2876 18.3164C24.0748 18.5129 23.8346 18.5875 23.567 18.5403C22.7328 18.4144 21.9577 18.1505 21.2418 17.7488C20.5253 17.3478 19.9152 16.8481 19.4115 16.25L18.8448 19.0833L20.2378 20.4056C20.4267 20.5944 20.5725 20.8029 20.6751 21.0308C20.7771 21.2593 20.8281 21.5074 20.8281 21.775V27.1111C20.8281 27.3787 20.7378 27.6029 20.5571 27.7836C20.3757 27.9649 20.1513 28.0556 19.8837 28.0556C19.6161 28.0556 19.3919 27.9649 19.2112 27.7836C19.0299 27.6029 18.9392 27.3787 18.9392 27.1111V22.3889L16.9559 20.5L15.4212 27.3472C15.374 27.5361 15.2679 27.7014 15.1029 27.8431C14.9373 27.9847 14.7443 28.0556 14.524 28.0556Z" fill="#33F110"/>
</g>
</svg>
