<svg width="54" height="54" viewBox="0 0 54 54" fill="none" xmlns="http://www.w3.org/2000/svg">
<rect width="54" height="54" rx="27" fill="#EDEDF3"/>
<path d="M28.666 20.6665H29.9993C30.353 20.6665 30.6921 20.526 30.9422 20.276C31.1922 20.0259 31.3327 19.6868 31.3327 19.3332C31.3327 18.9795 31.1922 18.6404 30.9422 18.3904C30.6921 18.1403 30.353 17.9998 29.9993 17.9998H28.666C28.3124 17.9998 27.9733 18.1403 27.7232 18.3904C27.4732 18.6404 27.3327 18.9795 27.3327 19.3332C27.3327 19.6868 27.4732 20.0259 27.7232 20.276C27.9733 20.526 28.3124 20.6665 28.666 20.6665ZM28.666 25.9998H29.9993C30.353 25.9998 30.6921 25.8594 30.9422 25.6093C31.1922 25.3593 31.3327 25.0201 31.3327 24.6665C31.3327 24.3129 31.1922 23.9737 30.9422 23.7237C30.6921 23.4736 30.353 23.3332 29.9993 23.3332H28.666C28.3124 23.3332 27.9733 23.4736 27.7232 23.7237C27.4732 23.9737 27.3327 24.3129 27.3327 24.6665C27.3327 25.0201 27.4732 25.3593 27.7232 25.6093C27.9733 25.8594 28.3124 25.9998 28.666 25.9998ZM21.9993 20.6665H23.3327C23.6863 20.6665 24.0254 20.526 24.2755 20.276C24.5255 20.0259 24.666 19.6868 24.666 19.3332C24.666 18.9795 24.5255 18.6404 24.2755 18.3904C24.0254 18.1403 23.6863 17.9998 23.3327 17.9998H21.9993C21.6457 17.9998 21.3066 18.1403 21.0565 18.3904C20.8065 18.6404 20.666 18.9795 20.666 19.3332C20.666 19.6868 20.8065 20.0259 21.0565 20.276C21.3066 20.526 21.6457 20.6665 21.9993 20.6665ZM21.9993 25.9998H23.3327C23.6863 25.9998 24.0254 25.8594 24.2755 25.6093C24.5255 25.3593 24.666 25.0201 24.666 24.6665C24.666 24.3129 24.5255 23.9737 24.2755 23.7237C24.0254 23.4736 23.6863 23.3332 23.3327 23.3332H21.9993C21.6457 23.3332 21.3066 23.4736 21.0565 23.7237C20.8065 23.9737 20.666 24.3129 20.666 24.6665C20.666 25.0201 20.8065 25.3593 21.0565 25.6093C21.3066 25.8594 21.6457 25.9998 21.9993 25.9998ZM37.9993 36.6665H36.666V13.9998C36.666 13.6462 36.5255 13.3071 36.2755 13.057C36.0254 12.807 35.6863 12.6665 35.3327 12.6665H16.666C16.3124 12.6665 15.9733 12.807 15.7232 13.057C15.4732 13.3071 15.3327 13.6462 15.3327 13.9998V36.6665H13.9993C13.6457 36.6665 13.3066 36.807 13.0565 37.057C12.8065 37.3071 12.666 37.6462 12.666 37.9998C12.666 38.3535 12.8065 38.6926 13.0565 38.9426C13.3066 39.1927 13.6457 39.3332 13.9993 39.3332H37.9993C38.353 39.3332 38.6921 39.1927 38.9422 38.9426C39.1922 38.6926 39.3327 38.3535 39.3327 37.9998C39.3327 37.6462 39.1922 37.3071 38.9422 37.057C38.6921 36.807 38.353 36.6665 37.9993 36.6665ZM27.3327 36.6665H24.666V31.3332H27.3327V36.6665ZM33.9993 36.6665H29.9993V29.9998C29.9993 29.6462 29.8589 29.3071 29.6088 29.057C29.3588 28.807 29.0196 28.6665 28.666 28.6665H23.3327C22.9791 28.6665 22.6399 28.807 22.3899 29.057C22.1398 29.3071 21.9993 29.6462 21.9993 29.9998V36.6665H17.9993V15.3332H33.9993V36.6665Z" fill="#4E4DA4"/>
</svg>
