<svg width="54" height="54" viewBox="0 0 54 54" fill="none" xmlns="http://www.w3.org/2000/svg">
<rect width="54" height="54" rx="27" fill="#E1E3F9"/>
<mask id="mask0_4166_33418" style="mask-type:alpha" maskUnits="userSpaceOnUse" x="10" y="10" width="34" height="34">
<rect x="10" y="10" width="34" height="34" fill="#D9D9D9"/>
</mask>
<g mask="url(#mask0_4166_33418)">
<path d="M34.8625 29.125C35.0514 29.125 35.2049 29.066 35.3229 28.9479C35.441 28.8299 35.5 28.6764 35.5 28.4875C35.5 28.3222 35.441 28.1806 35.3229 28.0625C35.2049 27.9444 35.0514 27.8854 34.8625 27.8854H30.4708C30.2819 27.8854 30.1285 27.9444 30.0104 28.0625C29.8924 28.1806 29.8333 28.3222 29.8333 28.4875C29.8333 28.6764 29.8924 28.8299 30.0104 28.9479C30.1285 29.066 30.2819 29.125 30.4708 29.125H34.8625ZM34.8625 32.4896C35.0514 32.4896 35.2049 32.4306 35.3229 32.3125C35.441 32.1944 35.5 32.0528 35.5 31.8875C35.5 31.6986 35.441 31.5451 35.3229 31.4271C35.2049 31.309 35.0514 31.25 34.8625 31.25H30.4708C30.2819 31.25 30.1285 31.309 30.0104 31.4271C29.8924 31.5451 29.8333 31.6986 29.8333 31.8875C29.8333 32.0528 29.8924 32.1944 30.0104 32.3125C30.1285 32.4306 30.2819 32.4896 30.4708 32.4896H34.8625ZM29.8333 21.3333H37.4479C38.109 21.3333 38.6582 21.5515 39.0955 21.9878C39.5318 22.4251 39.75 22.9743 39.75 23.6354V37.4479C39.75 38.109 39.5318 38.6582 39.0955 39.0955C38.6582 39.5318 38.109 39.75 37.4479 39.75H16.5521C15.891 39.75 15.3423 39.5318 14.9059 39.0955C14.4686 38.6582 14.25 38.109 14.25 37.4479V23.6354C14.25 22.9743 14.4686 22.4251 14.9059 21.9878C15.3423 21.5515 15.891 21.3333 16.5521 21.3333H24.1667V15.6667C24.1667 15.2653 24.3027 14.9286 24.5747 14.6566C24.8457 14.3855 25.1819 14.25 25.5833 14.25H28.4167C28.8181 14.25 29.1547 14.3855 29.4268 14.6566C29.6978 14.9286 29.8333 15.2653 29.8333 15.6667V21.3333ZM25.5833 22.75H28.4167V15.6667H25.5833V22.75ZM22.75 31.25C23.2222 31.25 23.6236 31.0847 23.9542 30.7542C24.2847 30.4236 24.45 30.0222 24.45 29.55C24.45 29.1014 24.2847 28.7118 23.9542 28.3813C23.6236 28.0507 23.2222 27.8854 22.75 27.8854C22.2778 27.8854 21.8764 28.0446 21.5458 28.3628C21.2153 28.6821 21.05 29.0778 21.05 29.55C21.05 30.0222 21.2153 30.4236 21.5458 30.7542C21.8764 31.0847 22.2778 31.25 22.75 31.25ZM18.925 34.6854H26.575V34.4729C26.575 34.1424 26.4867 33.8416 26.3101 33.5705C26.1325 33.2985 25.8785 33.0917 25.5479 32.95C25.1465 32.7611 24.7041 32.6194 24.2205 32.525C23.736 32.4306 23.2458 32.3833 22.75 32.3833C22.2542 32.3833 21.7645 32.4306 21.2809 32.525C20.7964 32.6194 20.3535 32.7611 19.9521 32.95C19.6215 33.0917 19.3679 33.2985 19.1913 33.5705C19.0138 33.8416 18.925 34.1424 18.925 34.4729V34.6854Z" fill="#0012B6"/>
</g>
</svg>
