<svg width="54" height="54" viewBox="0 0 54 54" fill="none" xmlns="http://www.w3.org/2000/svg">
<rect width="54" height="54" rx="27" fill="#E7F9F1"/>
<path d="M35.3327 15.3335H16.666C15.6051 15.3335 14.5877 15.7549 13.8376 16.5051C13.0874 17.2552 12.666 18.2726 12.666 19.3335V32.6668C12.666 33.7277 13.0874 34.7451 13.8376 35.4953C14.5877 36.2454 15.6051 36.6668 16.666 36.6668H35.3327C36.3935 36.6668 37.411 36.2454 38.1611 35.4953C38.9113 34.7451 39.3327 33.7277 39.3327 32.6668V19.3335C39.3327 18.2726 38.9113 17.2552 38.1611 16.5051C37.411 15.7549 36.3935 15.3335 35.3327 15.3335ZM34.786 18.0002L26.946 25.8402C26.8221 25.9651 26.6746 26.0643 26.5121 26.132C26.3496 26.1997 26.1754 26.2346 25.9993 26.2346C25.8233 26.2346 25.6491 26.1997 25.4866 26.132C25.3241 26.0643 25.1766 25.9651 25.0527 25.8402L17.2127 18.0002H34.786ZM36.666 32.6668C36.666 33.0205 36.5255 33.3596 36.2755 33.6096C36.0254 33.8597 35.6863 34.0002 35.3327 34.0002H16.666C16.3124 34.0002 15.9733 33.8597 15.7232 33.6096C15.4732 33.3596 15.3327 33.0205 15.3327 32.6668V19.8802L23.1727 27.7202C23.9227 28.4692 24.9393 28.89 25.9993 28.89C27.0594 28.89 28.076 28.4692 28.826 27.7202L36.666 19.8802V32.6668Z" fill="#4FE3A5"/>
</svg>
