<svg width="16" height="19" viewBox="0 0 16 19" fill="none" xmlns="http://www.w3.org/2000/svg">
<path d="M8 12.1484C7.8 12.1484 7.621 12.0734 7.463 11.9234C7.30433 11.7734 7.225 11.5901 7.225 11.3734C7.225 11.1734 7.30433 10.9984 7.463 10.8484C7.621 10.6984 7.8 10.6234 8 10.6234C8.2 10.6234 8.37933 10.6984 8.538 10.8484C8.696 10.9984 8.775 11.1734 8.775 11.3734C8.775 11.5901 8.696 11.7734 8.538 11.9234C8.37933 12.0734 8.2 12.1484 8 12.1484ZM4 12.1484C3.8 12.1484 3.621 12.0734 3.463 11.9234C3.30433 11.7734 3.225 11.5901 3.225 11.3734C3.225 11.1734 3.30433 10.9984 3.463 10.8484C3.621 10.6984 3.8 10.6234 4 10.6234C4.2 10.6234 4.37933 10.6984 4.538 10.8484C4.696 10.9984 4.775 11.1734 4.775 11.3734C4.775 11.5901 4.696 11.7734 4.538 11.9234C4.37933 12.0734 4.2 12.1484 4 12.1484ZM12 12.1484C11.8 12.1484 11.621 12.0734 11.463 11.9234C11.3043 11.7734 11.225 11.5901 11.225 11.3734C11.225 11.1734 11.3043 10.9984 11.463 10.8484C11.621 10.6984 11.8 10.6234 12 10.6234C12.2 10.6234 12.3793 10.6984 12.538 10.8484C12.696 10.9984 12.775 11.1734 12.775 11.3734C12.775 11.5901 12.696 11.7734 12.538 11.9234C12.3793 12.0734 12.2 12.1484 12 12.1484ZM8 15.9984C7.8 15.9984 7.621 15.9234 7.463 15.7734C7.30433 15.6234 7.225 15.4401 7.225 15.2234C7.225 15.0234 7.30433 14.8444 7.463 14.6864C7.621 14.5278 7.8 14.4484 8 14.4484C8.2 14.4484 8.37933 14.5278 8.538 14.6864C8.696 14.8444 8.775 15.0234 8.775 15.2234C8.775 15.4401 8.696 15.6234 8.538 15.7734C8.37933 15.9234 8.2 15.9984 8 15.9984ZM4 15.9984C3.8 15.9984 3.621 15.9234 3.463 15.7734C3.30433 15.6234 3.225 15.4401 3.225 15.2234C3.225 15.0234 3.30433 14.8444 3.463 14.6864C3.621 14.5278 3.8 14.4484 4 14.4484C4.2 14.4484 4.37933 14.5278 4.538 14.6864C4.696 14.8444 4.775 15.0234 4.775 15.2234C4.775 15.4401 4.696 15.6234 4.538 15.7734C4.37933 15.9234 4.2 15.9984 4 15.9984ZM12 15.9984C11.8 15.9984 11.621 15.9234 11.463 15.7734C11.3043 15.6234 11.225 15.4401 11.225 15.2234C11.225 15.0234 11.3043 14.8444 11.463 14.6864C11.621 14.5278 11.8 14.4484 12 14.4484C12.2 14.4484 12.3793 14.5278 12.538 14.6864C12.696 14.8444 12.775 15.0234 12.775 15.2234C12.775 15.4401 12.696 15.6234 12.538 15.7734C12.3793 15.9234 12.2 15.9984 12 15.9984ZM1.625 18.9984C1.15833 18.9984 0.771 18.8444 0.463 18.5364C0.154333 18.2278 0 17.8401 0 17.3734V4.62344C0 4.15677 0.154333 3.76944 0.463 3.46144C0.771 3.15277 1.15833 2.99844 1.625 2.99844H3.375V1.29844C3.375 1.14844 3.429 1.02344 3.537 0.923437C3.64567 0.823437 3.775 0.773438 3.925 0.773438C4.075 0.773438 4.2 0.823437 4.3 0.923437C4.4 1.02344 4.45 1.14844 4.45 1.29844V2.99844H11.625V1.27344C11.625 1.12344 11.6707 1.00244 11.762 0.910437C11.854 0.819104 11.975 0.773438 12.125 0.773438C12.2583 0.773438 12.375 0.819104 12.475 0.910437C12.575 1.00244 12.625 1.12344 12.625 1.27344V2.99844H14.375C14.8417 2.99844 15.2293 3.15277 15.538 3.46144C15.846 3.76944 16 4.15677 16 4.62344V17.3734C16 17.8401 15.846 18.2278 15.538 18.5364C15.2293 18.8444 14.8417 18.9984 14.375 18.9984H1.625ZM1.625 17.9984H14.375C14.5583 17.9984 14.7083 17.9401 14.825 17.8234C14.9417 17.7068 15 17.5568 15 17.3734V8.62344H1V17.3734C1 17.5568 1.05833 17.7068 1.175 17.8234C1.29167 17.9401 1.44167 17.9984 1.625 17.9984ZM1 7.62344H15V4.62344C15 4.4401 14.9417 4.2901 14.825 4.17344C14.7083 4.05677 14.5583 3.99844 14.375 3.99844H1.625C1.44167 3.99844 1.29167 4.05677 1.175 4.17344C1.05833 4.2901 1 4.4401 1 4.62344V7.62344Z" fill="#1C1B1F"/>
</svg>
