<svg width="15" height="15" viewBox="0 0 15 15" fill="none" xmlns="http://www.w3.org/2000/svg">
<path d="M7.57422 10.8984C7.47422 10.8984 7.37855 10.8818 7.28722 10.8484C7.19522 10.8151 7.09922 10.7568 6.99922 10.6734L4.39922 8.04844C4.29922 7.94844 4.24522 7.83177 4.23722 7.69844C4.22855 7.5651 4.28255 7.44844 4.39922 7.34844C4.49922 7.23177 4.61589 7.17344 4.74922 7.17344C4.88255 7.17344 4.99922 7.22344 5.09922 7.32344L7.07422 9.29844V1.14844C7.07422 1.0151 7.11989 0.898438 7.21122 0.798438C7.30322 0.698438 7.42422 0.648438 7.57422 0.648438C7.72422 0.648438 7.84522 0.698438 7.93722 0.798438C8.02855 0.898438 8.07422 1.0151 8.07422 1.14844V9.29844L10.0492 7.32344C10.1326 7.2401 10.2449 7.19444 10.3862 7.18644C10.5282 7.17777 10.6492 7.23177 10.7492 7.34844C10.8659 7.44844 10.9242 7.5611 10.9242 7.68644C10.9242 7.8111 10.8659 7.93177 10.7492 8.04844L8.14922 10.6734C8.04922 10.7568 7.95355 10.8151 7.86222 10.8484C7.77022 10.8818 7.67422 10.8984 7.57422 10.8984ZM2.19922 14.9984C1.73255 14.9984 1.34522 14.8444 1.03722 14.5364C0.728552 14.2278 0.574219 13.8401 0.574219 13.3734V11.4984C0.574219 11.3484 0.620219 11.2274 0.712219 11.1354C0.803552 11.0441 0.924219 10.9984 1.07422 10.9984C1.22422 10.9984 1.34522 11.0441 1.43722 11.1354C1.52855 11.2274 1.57422 11.3484 1.57422 11.4984V13.3734C1.57422 13.5401 1.63689 13.6858 1.76222 13.8104C1.88689 13.9358 2.03255 13.9984 2.19922 13.9984H12.9492C13.1159 13.9984 13.2616 13.9358 13.3862 13.8104C13.5116 13.6858 13.5742 13.5401 13.5742 13.3734V11.4984C13.5742 11.3484 13.6202 11.2274 13.7122 11.1354C13.8036 11.0441 13.9242 10.9984 14.0742 10.9984C14.2242 10.9984 14.3452 11.0441 14.4372 11.1354C14.5286 11.2274 14.5742 11.3484 14.5742 11.4984V13.3734C14.5742 13.8401 14.4202 14.2278 14.1122 14.5364C13.8036 14.8444 13.4159 14.9984 12.9492 14.9984H2.19922Z" fill="#0556E5"/>
</svg>
