<svg width="24" height="24" viewBox="0 0 24 24" fill="none" xmlns="http://www.w3.org/2000/svg">
<mask id="mask0_6764_89370" style="mask-type:alpha" maskUnits="userSpaceOnUse" x="0" y="0" width="24" height="24">
<rect width="24" height="24" fill="#D9D9D9"/>
</mask>
<g mask="url(#mask0_6764_89370)">
<path d="M16.9992 7.85H6.99922V5.425C6.99922 5.19167 7.07855 5 7.23722 4.85C7.39522 4.7 7.58255 4.625 7.79922 4.625H16.1742C16.4242 4.625 16.6242 4.7 16.7742 4.85C16.9242 5 16.9992 5.19167 16.9992 5.425V7.85ZM17.6242 12.125C17.9076 12.125 18.1449 12.029 18.3362 11.837C18.5282 11.6457 18.6242 11.4083 18.6242 11.125C18.6242 10.8417 18.5282 10.604 18.3362 10.412C18.1449 10.2207 17.9076 10.125 17.6242 10.125C17.3409 10.125 17.1036 10.2207 16.9122 10.412C16.7202 10.604 16.6242 10.8417 16.6242 11.125C16.6242 11.4083 16.7202 11.6457 16.9122 11.837C17.1036 12.029 17.3409 12.125 17.6242 12.125ZM8.62422 19H15.3742C15.5576 19 15.7076 18.9417 15.8242 18.825C15.9409 18.7083 15.9992 18.5583 15.9992 18.375V14.45H7.99922V18.375C7.99922 18.5583 8.05755 18.7083 8.17422 18.825C8.29089 18.9417 8.44089 19 8.62422 19ZM8.62422 20C8.17422 20 7.79089 19.8417 7.47422 19.525C7.15755 19.2083 6.99922 18.825 6.99922 18.375V16H4.37422C4.15755 16 3.96989 15.9207 3.81122 15.762C3.65322 15.604 3.57422 15.4167 3.57422 15.2V10.625C3.57422 10.0583 3.76589 9.58333 4.14922 9.2C4.53255 8.81667 5.00755 8.625 5.57422 8.625H18.4242C18.9909 8.625 19.4659 8.81667 19.8492 9.2C20.2326 9.58333 20.4242 10.0583 20.4242 10.625V15.2C20.4242 15.4167 20.3452 15.604 20.1872 15.762C20.0286 15.9207 19.8409 16 19.6242 16H16.9992V18.375C16.9992 18.825 16.8409 19.2083 16.5242 19.525C16.2076 19.8417 15.8242 20 15.3742 20H8.62422Z" fill="#0556E5"/>
</g>
</svg>
