<svg width="21" height="20" viewBox="0 0 21 20" fill="none" xmlns="http://www.w3.org/2000/svg">
<path d="M3 5H4.66667H18" stroke="white" stroke-width="2" stroke-linecap="round" stroke-linejoin="round"/>
<path d="M17.3346 5.0013C17.3346 4.44902 16.8869 4.0013 16.3346 4.0013C15.7824 4.0013 15.3346 4.44902 15.3346 5.0013H17.3346ZM5.66797 5.0013C5.66797 4.44902 5.22025 4.0013 4.66797 4.0013C4.11568 4.0013 3.66797 4.44902 3.66797 5.0013H5.66797ZM6.16797 5.0013C6.16797 5.55359 6.61568 6.0013 7.16797 6.0013C7.72025 6.0013 8.16797 5.55359 8.16797 5.0013H6.16797ZM12.8346 5.0013C12.8346 5.55359 13.2824 6.0013 13.8346 6.0013C14.3869 6.0013 14.8346 5.55359 14.8346 5.0013H12.8346ZM15.3346 5.0013V16.668H17.3346V5.0013H15.3346ZM15.3346 16.668C15.3346 17.0362 15.0362 17.3346 14.668 17.3346V19.3346C16.1407 19.3346 17.3346 18.1407 17.3346 16.668H15.3346ZM14.668 17.3346H6.33464V19.3346H14.668V17.3346ZM6.33464 17.3346C5.96645 17.3346 5.66797 17.0362 5.66797 16.668H3.66797C3.66797 18.1407 4.86188 19.3346 6.33464 19.3346V17.3346ZM5.66797 16.668V5.0013H3.66797V16.668H5.66797ZM8.16797 5.0013V3.33464H6.16797V5.0013H8.16797ZM8.16797 3.33464C8.16797 2.96645 8.46645 2.66797 8.83464 2.66797V0.667969C7.36188 0.667969 6.16797 1.86188 6.16797 3.33464H8.16797ZM8.83464 2.66797H12.168V0.667969H8.83464V2.66797ZM12.168 2.66797C12.5362 2.66797 12.8346 2.96645 12.8346 3.33464H14.8346C14.8346 1.86188 13.6407 0.667969 12.168 0.667969V2.66797ZM12.8346 3.33464V5.0013H14.8346V3.33464H12.8346Z" fill="white"/>
</svg>
