<svg width="40" height="40" viewBox="0 0 40 40" fill="none" xmlns="http://www.w3.org/2000/svg">
<circle cx="20" cy="20" r="20" fill="#C7F8E0"/>
<mask id="mask0_4392_45189" style="mask-type:alpha" maskUnits="userSpaceOnUse" x="8" y="8" width="24" height="24">
<rect x="8" y="8" width="24" height="24" fill="#1D9F5F"/>
</mask>
<g mask="url(#mask0_4392_45189)">
<path d="M17.875 10.5C17.7417 10.5 17.625 10.45 17.525 10.35C17.425 10.25 17.375 10.1333 17.375 10C17.375 9.85 17.425 9.729 17.525 9.637C17.625 9.54567 17.7417 9.5 17.875 9.5H22.125C22.2583 9.5 22.375 9.55 22.475 9.65C22.575 9.75 22.625 9.86667 22.625 10C22.625 10.15 22.575 10.2707 22.475 10.362C22.375 10.454 22.2583 10.5 22.125 10.5H17.875ZM20 21.625C20.15 21.625 20.271 21.575 20.363 21.475C20.4543 21.375 20.5 21.2583 20.5 21.125V16.875C20.5 16.7417 20.45 16.625 20.35 16.525C20.25 16.425 20.1333 16.375 20 16.375C19.85 16.375 19.729 16.425 19.637 16.525C19.5457 16.625 19.5 16.7417 19.5 16.875V21.125C19.5 21.2583 19.55 21.375 19.65 21.475C19.75 21.575 19.8667 21.625 20 21.625ZM20 29C18.9 29 17.8627 28.7917 16.888 28.375C15.9127 27.9583 15.0627 27.3877 14.338 26.663C13.6127 25.9377 13.0417 25.0877 12.625 24.113C12.2083 23.1377 12 22.1 12 21C12 19.9 12.2083 18.8623 12.625 17.887C13.0417 16.9123 13.6127 16.0623 14.338 15.337C15.0627 14.6123 15.9127 14.0417 16.888 13.625C17.8627 13.2083 18.9 13 20 13C20.9667 13 21.904 13.175 22.812 13.525C23.7207 13.875 24.55 14.3667 25.3 15L26.075 14.225C26.1583 14.125 26.2623 14.075 26.387 14.075C26.5123 14.075 26.6333 14.1333 26.75 14.25C26.85 14.35 26.9 14.4667 26.9 14.6C26.9 14.7333 26.85 14.85 26.75 14.95L26 15.7C26.6333 16.45 27.125 17.2793 27.475 18.188C27.825 19.096 28 20.0333 28 21C28 22.1 27.7917 23.1377 27.375 24.113C26.9583 25.0877 26.3877 25.9377 25.663 26.663C24.9377 27.3877 24.0877 27.9583 23.113 28.375C22.1377 28.7917 21.1 29 20 29ZM20 28C21.9333 28 23.5833 27.3167 24.95 25.95C26.3167 24.5833 27 22.9333 27 21C27 19.0667 26.3167 17.4167 24.95 16.05C23.5833 14.6833 21.9333 14 20 14C18.0667 14 16.4167 14.6833 15.05 16.05C13.6833 17.4167 13 19.0667 13 21C13 22.9333 13.6833 24.5833 15.05 25.95C16.4167 27.3167 18.0667 28 20 28Z" fill="#20B16A"/>
</g>
</svg>
