<svg width="54" height="54" viewBox="0 0 54 54" fill="none" xmlns="http://www.w3.org/2000/svg">
<rect width="54" height="54" rx="27" fill="#E9F5F9"/>
<mask id="mask0_5447_63150" style="mask-type:alpha" maskUnits="userSpaceOnUse" x="11" y="11" width="34" height="34">
<rect x="11" y="11" width="34" height="34" fill="#D9D9D9"/>
</mask>
<g mask="url(#mask0_5447_63150)">
<path d="M14.6484 37.386V35.2253C14.6484 34.564 14.8196 33.9974 15.1618 33.5253C15.5041 33.0533 15.9821 32.6756 16.5958 32.3923C17.8946 31.8018 19.1342 31.3414 20.3145 31.011C21.4955 30.6801 22.9121 30.5146 24.5645 30.5146C26.2413 30.5146 27.6639 30.6801 28.8324 31.011C30.0014 31.3414 31.247 31.8018 32.569 32.3923C33.1595 32.6756 33.6258 33.0533 33.9681 33.5253C34.3104 33.9974 34.4815 34.564 34.4815 35.2253V37.386H14.6484ZM37.102 37.386V35.261C37.102 34.2926 36.9074 33.4483 36.5181 32.728C36.1282 32.0084 35.6029 31.4006 34.9422 30.9048C35.7684 31.0465 36.5651 31.2471 37.3324 31.5066C38.0997 31.7661 38.7904 32.0495 39.4047 32.3566C39.9946 32.6637 40.4666 33.0709 40.8208 33.578C41.175 34.0858 41.352 34.6468 41.352 35.261V37.386H37.102ZM24.5645 27.1146C23.408 27.1146 22.4282 26.7191 21.6252 25.928C20.8223 25.1375 20.4208 24.1518 20.4208 22.9709C20.4208 21.7905 20.8223 20.8048 21.6252 20.0137C22.4282 19.2227 23.408 18.8271 24.5645 18.8271C25.7455 18.8271 26.7315 19.2227 27.5225 20.0137C28.313 20.8048 28.7083 21.7905 28.7083 22.9709C28.7083 24.1518 28.313 25.1375 27.5225 25.928C26.7315 26.7191 25.7455 27.1146 24.5645 27.1146ZM30.302 27.1146C30.5621 26.7134 30.7511 26.253 30.869 25.7334C30.9869 25.2143 31.0104 24.6715 30.9395 24.1048C31.0812 23.4435 31.0872 22.7706 30.9574 22.086C30.8276 21.4009 30.6092 20.7161 30.302 20.0316C30.302 19.7953 30.2726 19.5828 30.2136 19.3941C30.1547 19.2054 30.0544 19.0402 29.9127 18.8985C30.7865 18.8747 31.5422 19.1402 32.1797 19.695C32.8172 20.2498 33.1714 20.9405 33.2422 21.7673C33.5964 22.5935 33.6023 23.4021 33.26 24.1932C32.9172 24.9843 32.3208 25.5569 31.4708 25.911C31.4708 26.2884 31.3645 26.5834 31.152 26.7959C30.9395 27.0084 30.6562 27.1146 30.302 27.1146ZM15.852 36.1816H33.277V35.2253C33.277 34.8712 33.1827 34.5465 32.994 34.2512C32.8053 33.956 32.4746 33.6905 32.002 33.4548C30.8217 32.8405 29.6648 32.3977 28.5315 32.1262C27.3982 31.8548 26.0758 31.7191 24.5645 31.7191C23.0538 31.7191 21.7374 31.8548 20.6154 32.1262C19.494 32.3977 18.3312 32.8405 17.127 33.4548C16.6788 33.6905 16.3541 33.956 16.1529 34.2512C15.9523 34.5465 15.852 34.8712 15.852 35.2253V36.1816ZM24.5645 25.911C25.3913 25.911 26.088 25.6277 26.6547 25.061C27.2214 24.4944 27.5047 23.7977 27.5047 22.9709C27.5047 22.1447 27.2214 21.4483 26.6547 20.8816C26.088 20.3149 25.3913 20.0316 24.5645 20.0316C23.7383 20.0316 23.0419 20.3149 22.4752 20.8816C21.9086 21.4483 21.6252 22.1447 21.6252 22.9709C21.6252 23.7977 21.9086 24.4944 22.4752 25.061C23.0419 25.6277 23.7383 25.911 24.5645 25.911Z" fill="#00C2FF"/>
</g>
</svg>
