<svg width="36" height="36" viewBox="0 0 36 36" fill="none" xmlns="http://www.w3.org/2000/svg">
<rect width="36" height="36" rx="18" fill="#EEE5FB"/>
<mask id="mask0_5343_65255" style="mask-type:alpha" maskUnits="userSpaceOnUse" x="6" y="6" width="24" height="23">
<rect width="22.6667" height="22.6667" transform="matrix(-1 0 0 1 29.332 6.33398)" fill="#D9D9D9"/>
</mask>
<g mask="url(#mask0_5343_65255)">
<path d="M16.5807 11.5278C17.1002 11.5278 17.5447 11.3427 17.9143 10.9724C18.2845 10.6029 18.4696 10.1583 18.4696 9.63889C18.4696 9.11944 18.2845 8.67461 17.9143 8.30439C17.5447 7.9348 17.1002 7.75 16.5807 7.75C16.0613 7.75 15.6165 7.9348 15.2462 8.30439C14.8766 8.67461 14.6918 9.11944 14.6918 9.63889C14.6918 10.1583 14.8766 10.6029 15.2462 10.9724C15.6165 11.3427 16.0613 11.5278 16.5807 11.5278ZM21.4682 28.0556C21.8145 28.0556 22.09 27.9337 22.2946 27.6901C22.4992 27.4458 22.5622 27.1583 22.4835 26.8278L20.0752 14.7389L21.7752 15.4V17.6667C21.7752 17.9343 21.8655 18.1584 22.0462 18.3391C22.2276 18.5204 22.452 18.6111 22.7196 18.6111C22.9872 18.6111 23.2117 18.5204 23.393 18.3391C23.5737 18.1584 23.6641 17.9343 23.6641 17.6667V15.4236C23.6641 15.0458 23.5617 14.6995 23.3571 14.3847C23.1525 14.0699 22.8692 13.8338 22.5071 13.6764L18.8946 12.1417C18.4381 11.9528 17.9738 11.9329 17.5016 12.0822C17.0293 12.232 16.6594 12.5194 16.3918 12.9444L15.4474 14.4556C15.1011 15.0065 14.6525 15.4787 14.1016 15.8722C13.5506 16.2657 12.921 16.5255 12.2127 16.6514C11.9766 16.6829 11.7798 16.789 11.6224 16.9697C11.465 17.151 11.3863 17.3519 11.3863 17.5722C11.3863 17.8713 11.4924 18.1194 11.7046 18.3164C11.9174 18.5129 12.1576 18.5875 12.4252 18.5403C13.2594 18.4144 14.0345 18.1505 14.7504 17.7488C15.4669 17.3478 16.077 16.8481 16.5807 16.25L17.1474 19.0833L15.7543 20.4056C15.5655 20.5944 15.4197 20.8029 15.3171 21.0308C15.2151 21.2593 15.1641 21.5074 15.1641 21.775V27.1111C15.1641 27.3787 15.2544 27.6029 15.4351 27.7836C15.6165 27.9649 15.8409 28.0556 16.1085 28.0556C16.3761 28.0556 16.6002 27.9649 16.781 27.7836C16.9623 27.6029 17.053 27.3787 17.053 27.1111V22.3889L19.0363 20.5L20.571 27.3472C20.6182 27.5361 20.7243 27.7014 20.8893 27.8431C21.0549 27.9847 21.2479 28.0556 21.4682 28.0556Z" fill="#A36EE6"/>
</g>
</svg>
