<svg width="54" height="54" viewBox="0 0 54 54" fill="none" xmlns="http://www.w3.org/2000/svg">
<rect width="54" height="54" rx="27" fill="#F3CEEB"/>
<path d="M37.174 15.8666C37.0191 15.7413 36.8381 15.6523 36.6443 15.6062C36.4504 15.56 36.2487 15.5579 36.054 15.6C34.6292 15.8986 33.1584 15.9024 31.7322 15.6111C30.3059 15.3199 28.9543 14.7398 27.7607 13.9066C27.5375 13.7518 27.2723 13.6688 27.0007 13.6688C26.729 13.6688 26.4639 13.7518 26.2407 13.9066C25.047 14.7398 23.6954 15.3199 22.2691 15.6111C20.8429 15.9024 19.3721 15.8986 17.9473 15.6C17.7526 15.5579 17.5509 15.56 17.3571 15.6062C17.1632 15.6523 16.9822 15.7413 16.8273 15.8666C16.6726 15.9921 16.548 16.1507 16.4626 16.3307C16.3773 16.5106 16.3333 16.7074 16.334 16.9066V26.84C16.3328 28.7516 16.7884 30.6359 17.6627 32.3359C18.5371 34.0359 19.8049 35.5024 21.3607 36.6133L26.2273 40.08C26.4531 40.2407 26.7235 40.3271 27.0007 40.3271C27.2779 40.3271 27.5482 40.2407 27.774 40.08L32.6407 36.6133C34.1964 35.5024 35.4643 34.0359 36.3386 32.3359C37.213 30.6359 37.6685 28.7516 37.6673 26.84V16.9066C37.668 16.7074 37.624 16.5106 37.5387 16.3307C37.4533 16.1507 37.3287 15.9921 37.174 15.8666ZM35.0007 26.84C35.0017 28.3263 34.6477 29.7914 33.9682 31.1133C33.2887 32.4352 32.3033 33.5758 31.094 34.44L27.0007 37.36L22.9073 34.44C21.698 33.5758 20.7126 32.4352 20.0331 31.1133C19.3536 29.7914 18.9996 28.3263 19.0007 26.84V18.44C21.7959 18.6792 24.5954 18.0307 27.0007 16.5866C29.4059 18.0307 32.2054 18.6792 35.0007 18.44V26.84ZM29.054 23.7866L25.4673 27.3866L24.2807 26.1866C24.0296 25.9356 23.6891 25.7945 23.334 25.7945C22.9789 25.7945 22.6384 25.9356 22.3873 26.1866C22.1363 26.4377 21.9952 26.7782 21.9952 27.1333C21.9952 27.4884 22.1363 27.8289 22.3873 28.08L24.5207 30.2133C24.6446 30.3383 24.7921 30.4375 24.9546 30.5052C25.117 30.5728 25.2913 30.6077 25.4673 30.6077C25.6433 30.6077 25.8176 30.5728 25.9801 30.5052C26.1426 30.4375 26.29 30.3383 26.414 30.2133L31.0007 25.6666C31.2517 25.4156 31.3928 25.075 31.3928 24.72C31.3928 24.3649 31.2517 24.0244 31.0007 23.7733C30.7496 23.5222 30.4091 23.3812 30.054 23.3812C29.6989 23.3812 29.3584 23.5222 29.1073 23.7733L29.054 23.7866Z" fill="#B6008E"/>
</svg>
