<svg width="54" height="54" viewBox="0 0 54 54" fill="none" xmlns="http://www.w3.org/2000/svg">
<rect width="54" height="54" rx="27" fill="#BEF7BC"/>
<path d="M36.6668 20.6667L28.6668 13.6533C27.9334 12.9974 26.984 12.6348 26.0001 12.6348C25.0162 12.6348 24.0668 12.9974 23.3335 13.6533L15.3335 20.6667C14.91 21.0454 14.572 21.5101 14.3421 22.0297C14.1122 22.5493 13.9956 23.1118 14.0001 23.68V35.3333C14.0001 36.3942 14.4216 37.4116 15.1717 38.1618C15.9218 38.9119 16.9393 39.3333 18.0001 39.3333H34.0001C35.061 39.3333 36.0784 38.9119 36.8286 38.1618C37.5787 37.4116 38.0001 36.3942 38.0001 35.3333V23.6667C38.0027 23.1008 37.8853 22.5407 37.6554 22.0236C37.4256 21.5064 37.0886 21.0439 36.6668 20.6667ZM28.6668 36.6667H23.3335V30C23.3335 29.6464 23.4739 29.3072 23.724 29.0572C23.974 28.8071 24.3132 28.6667 24.6668 28.6667H27.3335C27.6871 28.6667 28.0262 28.8071 28.2763 29.0572C28.5263 29.3072 28.6668 29.6464 28.6668 30V36.6667ZM35.3335 35.3333C35.3335 35.687 35.193 36.0261 34.9429 36.2761C34.6929 36.5262 34.3537 36.6667 34.0001 36.6667H31.3335V30C31.3335 28.9391 30.912 27.9217 30.1619 27.1716C29.4117 26.4214 28.3943 26 27.3335 26H24.6668C23.6059 26 22.5885 26.4214 21.8384 27.1716C21.0882 27.9217 20.6668 28.9391 20.6668 30V36.6667H18.0001C17.6465 36.6667 17.3074 36.5262 17.0573 36.2761C16.8073 36.0261 16.6668 35.687 16.6668 35.3333V23.6667C16.667 23.4774 16.7076 23.2903 16.7857 23.1178C16.8639 22.9454 16.9779 22.7916 17.1201 22.6667L25.1201 15.6667C25.3634 15.4529 25.6762 15.335 26.0001 15.335C26.324 15.335 26.6368 15.4529 26.8801 15.6667L34.8801 22.6667C35.0223 22.7916 35.1363 22.9454 35.2145 23.1178C35.2927 23.2903 35.3332 23.4774 35.3335 23.6667V35.3333Z" fill="#1A8F56"/>
</svg>
