<svg id="wave" style="transform:rotate(180deg); transition: 0.3s" viewBox="0 0 1440 490" version="1.1" xmlns="http://www.w3.org/2000/svg"><defs><linearGradient id="sw-gradient-0" x1="0" x2="0" y1="1" y2="0"><stop stop-color="rgba(80, 109, 76, .4)" offset="0%"></stop><stop stop-color="rgba(80, 109, 76, .1)" offset="100%"></stop></linearGradient></defs><path style="transform:translate(0, 0px); opacity:1" fill="url(#sw-gradient-0)" d="M0,98L48,81.7C96,65,192,33,288,49C384,65,480,131,576,179.7C672,229,768,261,864,253.2C960,245,1056,196,1152,187.8C1248,180,1344,212,1440,196C1536,180,1632,114,1728,73.5C1824,33,1920,16,2016,73.5C2112,131,2208,261,2304,302.2C2400,343,2496,294,2592,294C2688,294,2784,343,2880,367.5C2976,392,3072,392,3168,334.8C3264,278,3360,163,3456,155.2C3552,147,3648,245,3744,245C3840,245,3936,147,4032,106.2C4128,65,4224,82,4320,73.5C4416,65,4512,33,4608,73.5C4704,114,4800,229,4896,228.7C4992,229,5088,114,5184,89.8C5280,65,5376,131,5472,187.8C5568,245,5664,294,5760,302.2C5856,310,5952,278,6048,245C6144,212,6240,180,6336,138.8C6432,98,6528,49,6624,57.2C6720,65,6816,131,6864,163.3L6912,196L6912,490L6864,490C6816,490,6720,490,6624,490C6528,490,6432,490,6336,490C6240,490,6144,490,6048,490C5952,490,5856,490,5760,490C5664,490,5568,490,5472,490C5376,490,5280,490,5184,490C5088,490,4992,490,4896,490C4800,490,4704,490,4608,490C4512,490,4416,490,4320,490C4224,490,4128,490,4032,490C3936,490,3840,490,3744,490C3648,490,3552,490,3456,490C3360,490,3264,490,3168,490C3072,490,2976,490,2880,490C2784,490,2688,490,2592,490C2496,490,2400,490,2304,490C2208,490,2112,490,2016,490C1920,490,1824,490,1728,490C1632,490,1536,490,1440,490C1344,490,1248,490,1152,490C1056,490,960,490,864,490C768,490,672,490,576,490C480,490,384,490,288,490C192,490,96,490,48,490L0,490Z"></path><defs><linearGradient id="sw-gradient-1" x1="0" x2="0" y1="1" y2="0"><stop stop-color="rgba(106, 185, 95, 1)" offset="0%"></stop><stop stop-color="rgba(80, 109, 76, .1)" offset="100%"></stop></linearGradient></defs><path style="transform:translate(0, 50px); opacity:0.9" fill="url(#sw-gradient-1)" d="M0,98L48,81.7C96,65,192,33,288,57.2C384,82,480,163,576,179.7C672,196,768,147,864,171.5C960,196,1056,294,1152,294C1248,294,1344,196,1440,155.2C1536,114,1632,131,1728,187.8C1824,245,1920,343,2016,359.3C2112,376,2208,310,2304,245C2400,180,2496,114,2592,89.8C2688,65,2784,82,2880,114.3C2976,147,3072,196,3168,179.7C3264,163,3360,82,3456,89.8C3552,98,3648,196,3744,261.3C3840,327,3936,359,4032,318.5C4128,278,4224,163,4320,138.8C4416,114,4512,180,4608,236.8C4704,294,4800,343,4896,326.7C4992,310,5088,229,5184,228.7C5280,229,5376,310,5472,294C5568,278,5664,163,5760,98C5856,33,5952,16,6048,65.3C6144,114,6240,229,6336,236.8C6432,245,6528,147,6624,114.3C6720,82,6816,114,6864,130.7L6912,147L6912,490L6864,490C6816,490,6720,490,6624,490C6528,490,6432,490,6336,490C6240,490,6144,490,6048,490C5952,490,5856,490,5760,490C5664,490,5568,490,5472,490C5376,490,5280,490,5184,490C5088,490,4992,490,4896,490C4800,490,4704,490,4608,490C4512,490,4416,490,4320,490C4224,490,4128,490,4032,490C3936,490,3840,490,3744,490C3648,490,3552,490,3456,490C3360,490,3264,490,3168,490C3072,490,2976,490,2880,490C2784,490,2688,490,2592,490C2496,490,2400,490,2304,490C2208,490,2112,490,2016,490C1920,490,1824,490,1728,490C1632,490,1536,490,1440,490C1344,490,1248,490,1152,490C1056,490,960,490,864,490C768,490,672,490,576,490C480,490,384,490,288,490C192,490,96,490,48,490L0,490Z"></path></svg>