<svg width="40" height="40" viewBox="0 0 40 40" fill="none" xmlns="http://www.w3.org/2000/svg">
<circle cx="20" cy="20" r="20" fill="#E1EBFB"/>
<mask id="mask0_4392_45182" style="mask-type:alpha" maskUnits="userSpaceOnUse" x="8" y="8" width="24" height="24">
<rect x="8" y="8" width="24" height="24" fill="#D9D9D9"/>
</mask>
<g mask="url(#mask0_4392_45182)">
<path d="M14.3 21.5H20.7C20.9333 21.5 21.125 21.425 21.275 21.275C21.425 21.125 21.5 20.9333 21.5 20.7V16.3C21.5 16.0667 21.425 15.875 21.275 15.725C21.125 15.575 20.9333 15.5 20.7 15.5H14.3C14.0667 15.5 13.875 15.575 13.725 15.725C13.575 15.875 13.5 16.0667 13.5 16.3V20.7C13.5 20.9333 13.575 21.125 13.725 21.275C13.875 21.425 14.0667 21.5 14.3 21.5ZM12.625 27C12.1583 27 11.771 26.846 11.463 26.538C11.1543 26.2293 11 25.8417 11 25.375V14.625C11 14.1583 11.1543 13.771 11.463 13.463C11.771 13.1543 12.1583 13 12.625 13H27.375C27.8417 13 28.2293 13.1543 28.538 13.463C28.846 13.771 29 14.1583 29 14.625V25.375C29 25.8417 28.846 26.2293 28.538 26.538C28.2293 26.846 27.8417 27 27.375 27H12.625ZM12.625 26H27.375C27.5583 26 27.7083 25.9417 27.825 25.825C27.9417 25.7083 28 25.5583 28 25.375V14.625C28 14.4417 27.9417 14.2917 27.825 14.175C27.7083 14.0583 27.5583 14 27.375 14H12.625C12.4417 14 12.2917 14.0583 12.175 14.175C12.0583 14.2917 12 14.4417 12 14.625V25.375C12 25.5583 12.0583 25.7083 12.175 25.825C12.2917 25.9417 12.4417 26 12.625 26Z" fill="#0446B9"/>
</g>
</svg>
