<svg width="46" height="46" viewBox="0 0 46 46" fill="none" xmlns="http://www.w3.org/2000/svg">
<rect x="0.648438" y="0.882812" width="44.9915" height="44.9915" rx="22.4957" fill="#CBF1DE"/>
<mask id="mask0_5856_86926" style="mask-type:alpha" maskUnits="userSpaceOnUse" x="8" y="8" width="30" height="30">
<rect x="8.98047" y="8.79688" width="28.328" height="28.328" fill="#D9D9D9"/>
</mask>
<g mask="url(#mask0_5856_86926)">
<path d="M24.915 15.2916C24.2658 15.2916 23.7103 15.0603 23.2484 14.5976C22.7857 14.1357 22.5543 13.5802 22.5543 12.931C22.5543 12.2818 22.7857 11.7259 23.2484 11.2632C23.7103 10.8013 24.2658 10.5703 24.915 10.5703C25.5642 10.5703 26.1201 10.8013 26.5828 11.2632C27.0447 11.7259 27.2756 12.2818 27.2756 12.931C27.2756 13.5802 27.0447 14.1357 26.5828 14.5976C26.1201 15.0603 25.5642 15.2916 24.915 15.2916ZM18.8068 35.9474C18.374 35.9474 18.0297 35.7952 17.774 35.4907C17.5182 35.1853 17.4396 34.8261 17.5379 34.413L20.5478 19.3048L18.4232 20.131V22.9638C18.4232 23.2982 18.3102 23.5784 18.0844 23.8042C17.8578 24.0308 17.5773 24.1441 17.2428 24.1441C16.9084 24.1441 16.6279 24.0308 16.4013 23.8042C16.1754 23.5784 16.0625 23.2982 16.0625 22.9638V20.1605C16.0625 19.6884 16.1904 19.2556 16.4461 18.8621C16.7018 18.4687 17.0559 18.1736 17.5084 17.9769L22.0232 16.0589C22.5937 15.8228 23.174 15.798 23.7642 15.9845C24.3543 16.1718 24.8166 16.531 25.1511 17.0621L26.3314 18.9507C26.7642 19.6392 27.3248 20.2294 28.0134 20.7212C28.7019 21.213 29.4888 21.5376 30.374 21.6949C30.6691 21.7343 30.915 21.8669 31.1117 22.0927C31.3084 22.3193 31.4068 22.5703 31.4068 22.8458C31.4068 23.2195 31.2742 23.5296 31.009 23.7759C30.7431 24.0214 30.4429 24.1146 30.1084 24.0556C29.0658 23.8982 28.0972 23.5685 27.2025 23.0665C26.307 22.5652 25.5445 21.9408 24.915 21.1933L24.2068 24.7343L25.9478 26.3868C26.1838 26.6228 26.366 26.8833 26.4943 27.1681C26.6217 27.4538 26.6855 27.7638 26.6855 28.0982V34.7671C26.6855 35.1015 26.5726 35.3817 26.3467 35.6075C26.1201 35.8341 25.8396 35.9474 25.5051 35.9474C25.1707 35.9474 24.8906 35.8341 24.6648 35.6075C24.4381 35.3817 24.3248 35.1015 24.3248 34.7671V28.8654L21.8461 26.5048L19.9281 35.0622C19.8691 35.2983 19.7365 35.5048 19.5303 35.6819C19.3234 35.8589 19.0822 35.9474 18.8068 35.9474Z" fill="#17814D"/>
</g>
</svg>
