<svg width="20" height="20" viewBox="0 0 20 20" fill="none" xmlns="http://www.w3.org/2000/svg">
<path d="M2.5 5H4.16667H17.5" stroke="#FF0000" strokeWidth="2" strokeLinecap="round" strokeLinejoin="round"/>
<path d="M16.8337 5.00033C16.8337 4.44804 16.3859 4.00033 15.8337 4.00033C15.2814 4.00033 14.8337 4.44804 14.8337 5.00033H16.8337ZM5.16699 5.00033C5.16699 4.44804 4.71928 4.00033 4.16699 4.00033C3.61471 4.00033 3.16699 4.44804 3.16699 5.00033H5.16699ZM5.66699 5.00033C5.66699 5.55261 6.11471 6.00033 6.66699 6.00033C7.21928 6.00033 7.66699 5.55261 7.66699 5.00033H5.66699ZM12.3337 5.00033C12.3337 5.55261 12.7814 6.00033 13.3337 6.00033C13.8859 6.00033 14.3337 5.55261 14.3337 5.00033H12.3337ZM14.8337 5.00033V16.667H16.8337V5.00033H14.8337ZM14.8337 16.667C14.8337 17.0352 14.5352 17.3337 14.167 17.3337V19.3337C15.6398 19.3337 16.8337 18.1398 16.8337 16.667H14.8337ZM14.167 17.3337H5.83366V19.3337H14.167V17.3337ZM5.83366 17.3337C5.46547 17.3337 5.16699 17.0352 5.16699 16.667H3.16699C3.16699 18.1398 4.3609 19.3337 5.83366 19.3337V17.3337ZM5.16699 16.667V5.00033H3.16699V16.667H5.16699ZM7.66699 5.00033V3.33366H5.66699V5.00033H7.66699ZM7.66699 3.33366C7.66699 2.96547 7.96547 2.66699 8.33366 2.66699V0.666992C6.8609 0.666992 5.66699 1.8609 5.66699 3.33366H7.66699ZM8.33366 2.66699H11.667V0.666992H8.33366V2.66699ZM11.667 2.66699C12.0352 2.66699 12.3337 2.96547 12.3337 3.33366H14.3337C14.3337 1.8609 13.1398 0.666992 11.667 0.666992V2.66699ZM12.3337 3.33366V5.00033H14.3337V3.33366H12.3337Z" fill="#FF0000"/>
</svg>
