<svg width="90" height="91" viewBox="0 0 90 91" fill="none" xmlns="http://www.w3.org/2000/svg">
<rect x="6.5" y="7" width="77" height="77" rx="38.5" fill="#D1FADF"/>
<path d="M61.0413 44.0241V45.4999C61.0394 48.9592 59.9192 52.3252 57.848 55.0958C55.7767 57.8664 52.8654 59.8933 49.5481 60.8741C46.2308 61.8549 42.6853 61.7372 39.4404 60.5383C36.1955 59.3395 33.4251 57.1239 31.5423 54.2219C29.6595 51.3199 28.7652 47.887 28.9928 44.4353C29.2204 40.9835 30.5577 37.6978 32.8052 35.0682C35.0528 32.4385 38.0902 30.6059 41.4644 29.8435C44.8386 29.0812 48.3689 29.4299 51.5286 30.8379M61.0413 32.6666L44.9997 48.7243L40.1872 43.9118" stroke="#039855" stroke-width="3.20833" stroke-linecap="round" stroke-linejoin="round"/>
<rect x="6.5" y="7" width="77" height="77" rx="38.5" stroke="#ECFDF3" stroke-width="12.8333"/>
</svg>
